<?xml version="1.0" encoding="utf-8"?>
<!-- Generator: Adobe Illustrator 16.0.0, SVG Export Plug-In . SVG Version: 6.00 Build 0)  -->
<!DOCTYPE svg PUBLIC "-//W3C//DTD SVG 1.1//EN" "http://www.w3.org/Graphics/SVG/1.1/DTD/svg11.dtd">
<svg version="1.1" id="Main_logo_1_" xmlns="http://www.w3.org/2000/svg" xmlns:xlink="http://www.w3.org/1999/xlink" x="0px"
	 y="0px" width="180px" height="126px" viewBox="0 0 180 126" enable-background="new 0 0 180 126" xml:space="preserve">
<g id="Shape_1">
	<g opacity="0.15">
		<path fill="#FFFFFF" d="M73.022,6C7,6,7,50.903,7,50.903C7,76.106,17.454,122,78.682,122C131.076,122,173,90.282,173,58.386
			C173,24.945,121.613,6,73.022,6z"/>
	</g>
	<g opacity="0.55">
		<path fill="none" stroke="#FFFFFF" stroke-width="3" stroke-miterlimit="10" d="M73.022,6C7,6,7,50.903,7,50.903
			C7,76.106,17.454,122,78.682,122C131.076,122,173,90.282,173,58.386C173,24.945,121.613,6,73.022,6z"/>
	</g>
</g>
<g id="Rectangle_2_copy_3">
	<g>
		<path fill="#FFFFFF" d="M119.374,49.22l-8.772-8.739c-0.808-0.804-2.117-0.804-2.925,0L76.24,71.797l-3.655,3.642
			c-0.808,0.804-2.117,0.804-2.924,0l-3.655-3.642l-8.042-8.011l-0.731-0.729c-0.807-0.805-2.117-0.805-2.924,0l-8.773,8.739
			c-0.808,0.805-0.808,2.108,0,2.913l24.126,24.033c0.808,0.805,2.117,0.805,2.924,0l5.849-5.826l4.387-4.37l36.554-36.414
			C120.182,51.33,120.182,50.025,119.374,49.22z"/>
	</g>
</g>
</svg>
