<?xml version="1.0" encoding="utf-8"?>
<!-- Generator: Adobe Illustrator 16.0.0, SVG Export Plug-In . SVG Version: 6.00 Build 0)  -->
<!DOCTYPE svg PUBLIC "-//W3C//DTD SVG 1.1//EN" "http://www.w3.org/Graphics/SVG/1.1/DTD/svg11.dtd">
<svg version="1.1" id="Layer_1" xmlns="http://www.w3.org/2000/svg" xmlns:xlink="http://www.w3.org/1999/xlink" x="0px" y="0px"
	 width="16px" height="16px" viewBox="1183.969 833.89 16 16" enable-background="new 1183.969 833.89 16 16" xml:space="preserve">
<g>
	<path d="M1191.969,833.89c-4.412,0-8,3.59-8,8.002c0,4.409,3.589,7.998,8,7.998c4.41,0,8-3.589,8-7.998
		C1199.969,837.48,1196.379,833.89,1191.969,833.89L1191.969,833.89z M1196.581,846.3v-0.315c0-1.091-1.262-1.489-1.936-1.778
		c-0.244-0.104-0.705-0.326-1.178-0.556c-0.16-0.078-0.303-0.286-0.322-0.464l-0.053-0.518c0.363-0.336,0.688-0.805,0.744-1.327
		h0.08c0.129,0,0.25-0.096,0.27-0.214l0.129-0.792c0.018-0.168-0.145-0.271-0.271-0.271c0.004-0.019,0.008-0.035,0.008-0.05
		c0.018-0.094,0.027-0.186,0.033-0.274c0.008-0.072,0.016-0.146,0.018-0.225c0.014-0.371-0.049-0.699-0.154-0.882
		c-0.105-0.255-0.268-0.504-0.49-0.717c-0.627-0.591-1.35-0.82-1.969-0.346c-0.42-0.072-0.92,0.12-1.283,0.543
		c-0.196,0.229-0.319,0.495-0.373,0.755c-0.047,0.162-0.078,0.359-0.085,0.569c-0.011,0.237,0.014,0.452,0.058,0.629
		c-0.123,0.007-0.247,0.107-0.247,0.269l0.127,0.79c0.02,0.118,0.141,0.214,0.27,0.214h0.071c0.117,0.564,0.418,1.029,0.75,1.354
		l-0.052,0.499c-0.018,0.178-0.161,0.386-0.321,0.464c-0.457,0.224-0.906,0.438-1.176,0.55c-0.636,0.261-1.936,0.686-1.936,1.776
		v0.247c-1.06-1.143-1.713-2.664-1.713-4.341c0-3.522,2.865-6.388,6.39-6.388c3.521,0,6.387,2.865,6.387,6.388
		C1198.358,843.599,1197.678,845.153,1196.581,846.3L1196.581,846.3z"/>
</g>
</svg>
