<?xml version="1.0" encoding="utf-8"?>
<!-- Generator: Adobe Illustrator 16.0.0, SVG Export Plug-In . SVG Version: 6.00 Build 0)  -->
<!DOCTYPE svg PUBLIC "-//W3C//DTD SVG 1.1//EN" "http://www.w3.org/Graphics/SVG/1.1/DTD/svg11.dtd">
<svg version="1.1" id="Layer_1" xmlns="http://www.w3.org/2000/svg" xmlns:xlink="http://www.w3.org/1999/xlink" x="0px" y="0px"
	 width="32px" height="32px" viewBox="-0.5 0.5 32 32" enable-background="new -0.5 0.5 32 32" xml:space="preserve">
<g>
	<g>
		<g>
			<defs>
				<polyline id="SVGID_1_" points="994,-3 994,5121 -6,5121 -6,-3 				"/>
			</defs>
			<clipPath id="SVGID_2_">
				<use xlink:href="#SVGID_1_"  overflow="visible"/>
			</clipPath>
			<path clip-path="url(#SVGID_2_)" fill="#252222" d="M26.5,12.25c0-3.729-3.58-6.75-8-6.75c-3.3,0-6.132,1.686-7.354,4.094
				c0.395-0.051,0.796-0.084,1.205-0.09C13.539,7.717,15.85,6.5,18.5,6.5c3.86,0,7,2.579,7,5.75c0,1.543-0.744,2.995-2.096,4.09
				c-0.312,0.251-0.441,0.667-0.332,1.052l0.416,1.455l-2.066-0.795c-0.041,0.338-0.115,0.668-0.205,0.992L25,20.5l-0.967-3.383
				C25.553,15.889,26.5,14.165,26.5,12.25 M12.5,10.5c-4.418,0-8,3.021-8,6.75c0,1.914,0.949,3.639,2.467,4.865L6,25.5l4.484-1.725
				C11.131,23.916,11.801,24,12.5,24c4.418,0,8-3.021,8-6.75C20.5,13.522,16.918,10.5,12.5,10.5 M12.5,23
				c-0.586,0-1.191-0.068-1.802-0.201c-0.069-0.016-0.144-0.021-0.214-0.021c-0.122,0-0.244,0.021-0.36,0.064l-2.612,1.006
				l0.416-1.455c0.11-0.385-0.021-0.801-0.332-1.053c-1.353-1.094-2.097-2.545-2.097-4.09c0-3.17,3.142-5.75,7-5.75
				c3.861,0,7,2.58,7,5.75C19.5,20.42,16.36,23,12.5,23"/>
		</g>
	</g>
</g>
</svg>
