<?xml version="1.0" encoding="utf-8"?>
<!-- Generator: Adobe Illustrator 16.0.0, SVG Export Plug-In . SVG Version: 6.00 Build 0)  -->
<!DOCTYPE svg PUBLIC "-//W3C//DTD SVG 1.1//EN" "http://www.w3.org/Graphics/SVG/1.1/DTD/svg11.dtd">
<svg version="1.1" id="Layer_1" xmlns="http://www.w3.org/2000/svg" xmlns:xlink="http://www.w3.org/1999/xlink" x="0px" y="0px"
	 width="32px" height="32px" viewBox="-0.5 0.5 32 32" enable-background="new -0.5 0.5 32 32" xml:space="preserve">
<path fill="#252222" d="M15.5,26c0.275,0,0.5-0.225,0.5-0.5S15.775,25,15.5,25c-0.276,0-0.5,0.225-0.5,0.5S15.224,26,15.5,26
	 M19.5,5.5h-8c-1.104,0-2,0.896-2,2v18c0,1.105,0.896,2,2,2h8c1.104,0,2-0.895,2-2v-18C21.5,6.396,20.604,5.5,19.5,5.5 M20.5,25.5
	c0,0.553-0.448,1-1,1h-8c-0.553,0-1-0.447-1-1v-1h10V25.5z M20.5,23.5h-10v-14h10V23.5z M20.5,8.5h-10v-1c0-0.552,0.447-1,1-1h8
	c0.552,0,1,0.448,1,1V8.5z M16,7h-1c-0.276,0-0.5,0.224-0.5,0.5S14.724,8,15,8h1c0.275,0,0.5-0.224,0.5-0.5S16.275,7,16,7"/>
</svg>
