<?xml version="1.0" encoding="utf-8"?>
<!-- Generator: Adobe Illustrator 16.0.0, SVG Export Plug-In . SVG Version: 6.00 Build 0)  -->
<!DOCTYPE svg PUBLIC "-//W3C//DTD SVG 1.1//EN" "http://www.w3.org/Graphics/SVG/1.1/DTD/svg11.dtd">
<svg version="1.1" id="Layer_1" xmlns="http://www.w3.org/2000/svg" xmlns:xlink="http://www.w3.org/1999/xlink" x="0px" y="0px"
	 width="32px" height="32px" viewBox="-0.5 0.5 32 32" enable-background="new -0.5 0.5 32 32" xml:space="preserve">
<g>
	<g>
		<g>
			<g>
				<g>
					<defs>
						<polyline id="SVGID_1_" points="993.5,-2.5 993.5,5121.5 -6.5,5121.5 -13.5,-12 						"/>
					</defs>
					<clipPath id="SVGID_2_">
						<use xlink:href="#SVGID_1_"  overflow="visible"/>
					</clipPath>
					<path clip-path="url(#SVGID_2_)" fill="#252222" d="M25.545,10.506h-3.08c0.375-0.861,0.4-1.82-0.043-2.624
						c-0.791-1.434-2.729-1.813-4.324-0.847c-0.615,0.372-1.072,0.895-1.377,1.472c-0.016-0.007-0.027-0.019-0.043-0.022
						c-0.012-0.004-0.02,0-0.031-0.002c-0.025-0.006-0.053-0.006-0.08-0.008c-0.021,0.002-0.045,0.002-0.066,0.006
						c-0.021,0.002-1.107-0.004-1.129,0.004c-0.019,0.004-0.029,0.016-0.045,0.022c-0.306-0.577-0.761-1.1-1.376-1.472
						c-1.598-0.966-3.534-0.586-4.325,0.847c-0.442,0.804-0.418,1.763-0.043,2.624H6.455c-0.527,0-0.955,0.448-0.955,1v1.999
						c0,0.552,0.473,1,1,1V25.5c0,0.552,0.382,1,0.818,1H24.5c0.617,0,1-0.448,1-1V14.504c0.525,0,1-0.447,1-1v-1.999
						C26.498,10.954,26.07,10.506,25.545,10.506 M10.449,8.382c0.526-0.956,1.879-1.172,3.021-0.481
						c0.73,0.441,1.184,1.146,1.285,1.847c-0.089,0.26-0.186,0.513-0.287,0.759h-3.803C10.212,9.833,10.097,9.023,10.449,8.382
						 M6.454,13.505V11.5h7.645c0,0-0.904,1.434-1.315,2.005H6.454z M15.5,25.5H7.408v-5H15.5V25.5z M15.5,19.503H7.408V14.5h4.593
						c0,0-1.085,1.15-1.098,1.16c-0.2,0.177-0.229,0.492-0.061,0.704c0.066,0.083,0.151,0.136,0.243,0.163
						c0.146,0.041,0.306,0.01,0.429-0.098c0.064-0.058,0.836-0.747,1.743-1.93H15.5V19.503L15.5,19.503z M15.021,13.505h-1.057
						c0.366-0.555,0.727-1.18,1.057-1.871V13.505z M18.576,7.9c1.143-0.69,2.492-0.475,3.02,0.481
						c0.355,0.642,0.236,1.451-0.219,2.124h-3.801c-0.104-0.246-0.199-0.499-0.287-0.76C17.391,9.045,17.844,8.342,18.576,7.9
						 M17.039,11.665c0.326,0.678,0.684,1.293,1.041,1.84h-1.041V11.665z M24.59,25.5H16.5v-5h8.09V25.5z M24.59,19.503H16.5V14.5
						h2.289c0.904,1.182,1.678,1.872,1.74,1.928c0.123,0.108,0.285,0.141,0.432,0.1c0.09-0.024,0.176-0.082,0.242-0.161
						c0.168-0.212,0.143-0.527-0.062-0.704c-0.014-0.01-0.018-0.43-0.641-1.162h4L24.59,19.503L24.59,19.503z M25.545,13.505h-6.281
						c-0.412-0.571-1.227-2.005-1.227-2.005h7.504L25.545,13.505L25.545,13.505z"/>
				</g>
			</g>
		</g>
	</g>
</g>
</svg>
