<?xml version="1.0" encoding="utf-8"?>
<!-- Generator: Adobe Illustrator 16.0.0, SVG Export Plug-In . SVG Version: 6.00 Build 0)  -->
<!DOCTYPE svg PUBLIC "-//W3C//DTD SVG 1.1//EN" "http://www.w3.org/Graphics/SVG/1.1/DTD/svg11.dtd">
<svg version="1.1" id="Layer_1" xmlns="http://www.w3.org/2000/svg" xmlns:xlink="http://www.w3.org/1999/xlink" x="0px" y="0px"
	 width="32px" height="32px" viewBox="-0.5 0.5 32 32" enable-background="new -0.5 0.5 32 32" xml:space="preserve">
<g>
	<g>
		<g>
			<g>
				<defs>
					<polyline id="SVGID_1_" points="523.5,-2535.5 523.5,2588.5 -476.5,2588.5 -476.5,-2535.5 					"/>
				</defs>
				<clipPath id="SVGID_2_">
					<use xlink:href="#SVGID_1_"  overflow="visible"/>
				</clipPath>
				<path clip-path="url(#SVGID_2_)" fill="#252222" d="M9.5,13.5h-4c-0.552,0-1,0.448-1,1v12c0,0.552,0.448,1,1,1h4
					c0.552,0,1-0.448,1-1v-12C10.5,13.948,10.052,13.5,9.5,13.5 M9.5,26.5h-4v-12h4V26.5z M25.5,5.5h-20c-0.552,0-1,0.448-1,1v4
					c0,0.552,0.448,1,1,1h20c0.552,0,1-0.448,1-1v-4C26.5,5.948,26.052,5.5,25.5,5.5 M25.5,10.5h-20v-4h20V10.5z M25.5,13.5h-12
					c-0.552,0-1,0.448-1,1v12c0,0.552,0.448,1,1,1h12c0.552,0,1-0.448,1-1v-12C26.5,13.948,26.052,13.5,25.5,13.5 M25.5,26.5h-12
					v-12h12V26.5z"/>
			</g>
		</g>
	</g>
</g>
</svg>
