<?xml version="1.0" encoding="utf-8"?>
<!-- Generator: Adobe Illustrator 16.0.0, SVG Export Plug-In . SVG Version: 6.00 Build 0)  -->
<!DOCTYPE svg PUBLIC "-//W3C//DTD SVG 1.1//EN" "http://www.w3.org/Graphics/SVG/1.1/DTD/svg11.dtd">
<svg version="1.1" id="Layer_1" xmlns="http://www.w3.org/2000/svg" xmlns:xlink="http://www.w3.org/1999/xlink" x="0px" y="0px"
	 width="32px" height="32px" viewBox="-0.5 0.5 32 32" enable-background="new -0.5 0.5 32 32" xml:space="preserve">
<g>
	<g>
		<g>
			<defs>
				<polyline id="SVGID_1_" points="994,-3 994,5121 -6,5121 -6,-3 				"/>
			</defs>
			<clipPath id="SVGID_2_">
				<use xlink:href="#SVGID_1_"  overflow="visible"/>
			</clipPath>
			<path clip-path="url(#SVGID_2_)" fill="#252222" d="M20.5,12.5h-6c-2,0-2-2-4-2h-4c-1.104,0-2,0.896-2,2v12c0,1.105,0.896,2,2,2
				h14c1.104,0,2-0.895,2-2v-10C22.5,13.396,21.604,12.5,20.5,12.5 M21.5,24.5c0,0.553-0.448,1-1,1h-14c-0.553,0-1-0.447-1-1v-8h16
				V24.5z M21.5,15.5h-16v-3c0-0.552,0.447-1,1-1h4c1.5,0,1.5,2,4,2h6c0.552,0,1,0.448,1,1V15.5z M24.5,8.5h-6c-2,0-2-2-4-2h-4
				c-1.104,0-2,0.896-2,2V9c0,0.275,0.225,0.5,0.5,0.5S9.5,9.275,9.5,9V8.5c0-0.552,0.447-1,1-1h4c1.5,0,1.5,2,3.999,2H24.5
				c0.552,0,1,0.448,1,1v10c0,0.553-0.448,1-1,1H24c-0.275,0-0.5,0.225-0.5,0.5s0.225,0.5,0.5,0.5h0.5c1.104,0,2-0.895,2-2v-10
				C26.5,9.396,25.604,8.5,24.5,8.5"/>
		</g>
	</g>
</g>
</svg>
