<?xml version="1.0" encoding="utf-8"?>
<!-- Generator: Adobe Illustrator 16.0.0, SVG Export Plug-In . SVG Version: 6.00 Build 0)  -->
<!DOCTYPE svg PUBLIC "-//W3C//DTD SVG 1.1//EN" "http://www.w3.org/Graphics/SVG/1.1/DTD/svg11.dtd">
<svg version="1.1" id="Layer_1" xmlns="http://www.w3.org/2000/svg" xmlns:xlink="http://www.w3.org/1999/xlink" x="0px" y="0px"
	 width="32px" height="32px" viewBox="-0.5 0.5 32 32" enable-background="new -0.5 0.5 32 32" xml:space="preserve">
<g>
	<g>
		<g>
			<defs>
				<polyline id="SVGID_1_" points="994,-3 994,5121 -6,5121 -6,-3 				"/>
			</defs>
			<clipPath id="SVGID_2_">
				<use xlink:href="#SVGID_1_"  overflow="visible"/>
			</clipPath>
			<path clip-path="url(#SVGID_2_)" fill="#252222" d="M6.915,20.963c0.672-0.186,1.828-0.947,1.828-2.668
				c0-1.539-0.502-2.219-0.771-2.584l-0.033-0.045c-0.004-0.006-0.006-0.008-0.01-0.012c-0.021-0.064-0.086-0.328,0.053-0.889
				c0.053-0.219,0.021-0.469-0.072-0.673c-0.202-0.442-0.579-1.27-0.314-1.892c0.438-1.066,0.622-1.146,1.115-1.361
				c0.047-0.021,0.094-0.045,0.137-0.072c0.123-0.08,0.629-0.268,1.146-0.268c0.249,0,0.456,0.046,0.622,0.129
				c0.043-0.172,0.096-0.344,0.166-0.518c0.062-0.152,0.126-0.283,0.189-0.418c-0.312-0.135-0.646-0.192-0.979-0.192
				c-0.723,0-1.408,0.249-1.682,0.423c-0.801,0.35-1.137,0.671-1.641,1.896c-0.438,1.031,0.083,2.147,0.34,2.709
				c-0.313,1.283,0.121,1.726,0.121,1.726c0.229,0.312,0.612,0.761,0.612,2.04c0,1.456-1.12,1.71-1.12,1.71
				C5.713,20.324,4.5,21,4.5,23c0,0,0,0.5,0.5,0.5l2.229,0.001c0.121-0.371,0.277-0.706,0.471-1L5.537,22.5
				C5.687,21.55,6.276,21.191,6.915,20.963 M24.378,20.006c0,0-1.121-0.255-1.121-1.711c0-1.279,0.386-1.729,0.612-2.039
				c0,0,0.436-0.443,0.121-1.727c0.257-0.562,0.777-1.678,0.341-2.709c-0.506-1.226-0.841-1.547-1.642-1.896
				c-0.272-0.175-0.959-0.423-1.683-0.423c-0.341,0-0.688,0.061-1.008,0.206c0.128,0.323,0.235,0.644,0.312,0.959
				c0.014-0.008,0.025-0.017,0.039-0.024c0.17-0.094,0.393-0.142,0.656-0.142c0.518,0,1.021,0.188,1.146,0.267
				c0.043,0.028,0.09,0.053,0.138,0.073c0.491,0.216,0.676,0.295,1.114,1.362c0.266,0.622-0.111,1.447-0.314,1.892
				c-0.093,0.203-0.125,0.454-0.07,0.673c0.135,0.562,0.071,0.823,0.051,0.889c-0.004,0.004-0.006,0.006-0.01,0.011l-0.033,0.046
				c-0.271,0.365-0.771,1.044-0.771,2.584c0,1.721,1.157,2.482,1.829,2.668c0.639,0.229,1.229,0.587,1.378,1.537h-2.163
				c0.192,0.294,0.35,0.629,0.471,1L26,23.499c0.5,0,0.5-0.5,0.5-0.5C26.5,21,25.288,20.323,24.378,20.006 M19.486,21.107
				c0,0-1.791-0.428-1.791-2.301c0-1.644,0.736-2.224,1.021-2.623c0,0,0.584-0.511,0.192-2.162c0.652-0.905,0.865-2.379,0.066-4.198
				c-0.445-1.062-0.838-1.646-1.438-1.983C17.1,7.592,16.6,7.5,16.113,7.5c-0.902,0-1.76,0.32-2.102,0.544
				c-1,0.449-1.674,0.864-2.305,2.438c-0.547,1.324,0.104,2.761,0.425,3.482c-0.392,1.652,0.151,2.219,0.151,2.219
				c0.283,0.399,1.021,0.979,1.021,2.623c0,1.871-1.793,2.301-1.793,2.301C10.375,21.516,8,22.301,8,25c0,0,0,0.5,0.5,0.5h14
				C23,25.5,23,25,23,25C23,22.301,20.625,21.518,19.486,21.107 M9.04,24.501c0.233-1.408,1.466-1.971,2.728-2.423l0.039-0.014
				c0.898-0.239,2.498-1.198,2.498-3.258c0-1.744-0.707-2.597-1.088-3.056c-0.076-0.094-0.168-0.211-0.146-0.187
				c-0.03-0.066-0.18-0.457,0.037-1.369c0.101-0.428-0.07-0.661-0.07-0.661c-0.273-0.614-0.781-1.757-0.4-2.681
				c0.512-1.276,0.965-1.528,1.786-1.897c0.048-0.021,0.095-0.046,0.138-0.075C14.716,8.78,15.373,8.5,16.116,8.5
				c0.37,0,0.685,0.072,0.932,0.212c0.298,0.168,0.583,0.488,1.015,1.515c0.803,1.83,0.293,2.855,0.037,3.211
				c-0.17,0.234-0.229,0.532-0.162,0.814c0.199,0.839,0.069,1.193,0.037,1.264c-0.009,0.01-0.129,0.161-0.188,0.236
				c-0.38,0.458-1.088,1.311-1.088,3.057c0,2.058,1.601,3.017,2.499,3.256l0.039,0.014c1.261,0.452,2.494,1.015,2.728,2.423H9.04
				L9.04,24.501z"/>
		</g>
	</g>
</g>
</svg>
