<?xml version="1.0" encoding="utf-8"?>
<!-- Generator: Adobe Illustrator 16.0.0, SVG Export Plug-In . SVG Version: 6.00 Build 0)  -->
<!DOCTYPE svg PUBLIC "-//W3C//DTD SVG 1.1//EN" "http://www.w3.org/Graphics/SVG/1.1/DTD/svg11.dtd">
<svg version="1.1" id="Layer_1" xmlns="http://www.w3.org/2000/svg" xmlns:xlink="http://www.w3.org/1999/xlink" x="0px" y="0px"
	 width="32px" height="32px" viewBox="-0.5 0.5 32 32" enable-background="new -0.5 0.5 32 32" xml:space="preserve">
<g>
	<g>
		<g>
			<defs>
				<polyline id="SVGID_1_" points="994,-3 994,5121 -6,5121 -6,-3 				"/>
			</defs>
			<clipPath id="SVGID_2_">
				<use xlink:href="#SVGID_1_"  overflow="visible"/>
			</clipPath>
			<path clip-path="url(#SVGID_2_)" fill="#252222" d="M15.5,7.5c-4.971,0-9,4.029-9,9s4.029,9,9,9s9-4.029,9-9S20.471,7.5,15.5,7.5
				 M15.5,24.5c-4.418,0-8-3.581-8-8c0-4.418,3.582-8,8-8s8,3.582,8,8C23.5,20.919,19.918,24.5,15.5,24.5 M15.5,5.5
				c-6.075,0-11,4.926-11,11c0,6.075,4.925,11,11,11s11-4.925,11-11C26.5,10.426,21.575,5.5,15.5,5.5 M15.5,26.5
				c-5.523,0-10-4.477-10-10s4.477-10,10-10s10,4.477,10,10S21.023,26.5,15.5,26.5 M19,16h-1.57c-0.182-0.7-0.729-1.248-1.43-1.43
				V11c0-0.275-0.225-0.5-0.5-0.5S15,10.725,15,11v3.57c-0.861,0.224-1.5,0.998-1.5,1.93c0,1.105,0.896,2,2,2
				c0.932,0,1.707-0.639,1.93-1.5H19c0.275,0,0.5-0.225,0.5-0.5S19.275,16,19,16 M15.5,17.5c-0.552,0-1-0.448-1-1s0.448-1,1-1
				s1,0.448,1,1S16.052,17.5,15.5,17.5"/>
		</g>
	</g>
</g>
</svg>
